<svg width="245" height="571" viewBox="0 0 245 571" fill="none" xmlns="http://www.w3.org/2000/svg">
<rect opacity="0.62" x="125.3" y="181.693" width="25.0596" height="25.0596" rx="6.00463" transform="rotate(-89.9958 125.3 181.693)" fill="#B8EACB"/>
<rect opacity="0.62" x="187.95" y="181.698" width="25.0596" height="25.0596" rx="6.00463" transform="rotate(-89.9958 187.95 181.698)" fill="#1B8354"/>
<rect opacity="0.62" x="219.275" y="181.699" width="25.0596" height="25.0596" rx="6.00463" transform="rotate(-89.9958 219.275 181.699)" fill="#1B8354"/>
<rect opacity="0.62" x="31.334" y="25.0596" width="25.0596" height="25.0596" rx="6.00463" transform="rotate(-89.9958 31.334 25.0596)" fill="#1B8354"/>
<rect opacity="0.62" x="62.6587" y="25.062" width="25.0596" height="25.0596" rx="6.00463" transform="rotate(-89.9958 62.6587 25.062)" fill="#1B8354"/>
<rect opacity="0.62" x="187.936" y="369.648" width="25.0596" height="25.0596" rx="6.00463" transform="rotate(-89.9958 187.936 369.648)" fill="#1B8354"/>
<rect opacity="0.62" x="93.9836" y="25.0645" width="25.0596" height="25.0596" rx="6.00463" transform="rotate(-89.9958 93.9836 25.0645)" fill="#B8EACB"/>
<rect opacity="0.62" x="125.312" y="25.0664" width="25.0596" height="25.0596" rx="6.00463" transform="rotate(-89.9958 125.312 25.0664)" fill="#54C08A"/>
<rect opacity="0.62" x="156.636" y="25.0693" width="25.0596" height="25.0596" rx="6.00463" transform="rotate(-89.9958 156.636 25.0693)" fill="#1B8354"/>
<rect opacity="0.62" x="187.961" y="25.071" width="25.0596" height="25.0596" rx="6.00463" transform="rotate(-89.9958 187.961 25.071)" fill="#1B8354"/>
<rect opacity="0.62" x="156.616" y="306.995" width="25.0596" height="25.0596" rx="6.00463" transform="rotate(-89.9958 156.616 306.995)" fill="#1B8354"/>
<rect opacity="0.62" x="219.266" y="307" width="25.0596" height="25.0596" rx="6.00463" transform="rotate(-89.9958 219.266 307)" fill="#54C08A"/>
<rect opacity="0.62" y="150.359" width="25.0596" height="25.0596" rx="6.00463" transform="rotate(-89.9958 0 150.359)" fill="#1B8354"/>
<rect opacity="0.62" x="31.325" y="150.362" width="25.0596" height="25.0596" rx="6.00463" transform="rotate(-89.9958 31.325 150.362)" fill="#B8EACB"/>
<rect opacity="0.62" x="93.9746" y="150.366" width="25.0596" height="25.0596" rx="6.00463" transform="rotate(-89.9958 93.9746 150.366)" fill="#1B8354"/>
<rect opacity="0.62" x="125.302" y="150.368" width="25.0596" height="25.0596" rx="6.00463" transform="rotate(-89.9958 125.302 150.368)" fill="#1B8354"/>
<rect opacity="0.62" x="156.627" y="150.37" width="25.0596" height="25.0596" rx="6.00463" transform="rotate(-89.9958 156.627 150.37)" fill="#54C08A"/>
<rect opacity="0.62" x="62.6475" y="181.688" width="25.0596" height="25.0596" rx="6.00463" transform="rotate(-89.9958 62.6475 181.688)" fill="#1B8354"/>
<rect opacity="0.62" x="187.938" y="338.324" width="25.0596" height="25.0596" rx="6.00463" transform="rotate(-89.9958 187.938 338.324)" fill="#1B8354"/>
<rect opacity="0.62" x="219.263" y="338.326" width="25.0596" height="25.0596" rx="6.00463" transform="rotate(-89.9958 219.263 338.326)" fill="#1B8354"/>
<rect opacity="0.62" x="156.618" y="275.671" width="25.0596" height="25.0596" rx="6.00463" transform="rotate(-89.9958 156.618 275.671)" fill="#1B8354"/>
<rect opacity="0.62" x="219.268" y="275.675" width="25.0596" height="25.0596" rx="6.00463" transform="rotate(-89.9958 219.268 275.675)" fill="#54C08A"/>
<rect opacity="0.62" x="169.172" y="413.698" width="25.0596" height="25.0596" rx="6.00463" transform="rotate(-89.9958 169.172 413.698)" fill="#1B8354"/>
<rect opacity="0.62" x="93.9722" y="181.691" width="25.0596" height="25.0596" rx="6.00463" transform="rotate(-89.9958 93.9722 181.691)" fill="#54C08A"/>
<rect opacity="0.62" x="125.305" y="119.042" width="25.0596" height="25.0596" rx="6.00463" transform="rotate(-89.9958 125.305 119.042)" fill="#1B8354"/>
<rect opacity="0.62" x="187.955" y="119.047" width="25.0596" height="25.0596" rx="6.00463" transform="rotate(-89.9958 187.955 119.047)" fill="#1B8354"/>
<rect opacity="0.62" x="219.279" y="119.049" width="25.0596" height="25.0596" rx="6.00463" transform="rotate(-89.9958 219.279 119.049)" fill="#1B8354"/>
<rect opacity="0.62" x="156.621" y="244.345" width="25.0596" height="25.0596" rx="6.00463" transform="rotate(-89.9958 156.621 244.345)" fill="#54C08A"/>
<rect opacity="0.62" x="187.946" y="244.347" width="25.0596" height="25.0596" rx="6.00463" transform="rotate(-89.9958 187.946 244.347)" fill="#1B8354"/>
<rect opacity="0.62" x="219.271" y="244.35" width="25.0596" height="25.0596" rx="6.00463" transform="rotate(-89.9958 219.271 244.35)" fill="#1B8354"/>
<rect opacity="0.62" x="0.0045166" y="87.7087" width="25.0596" height="25.0596" rx="6.00463" transform="rotate(-89.9958 0.0045166 87.7087)" fill="#54C08A"/>
<rect opacity="0.62" x="31.3293" y="87.7107" width="25.0596" height="25.0596" rx="6.00463" transform="rotate(-89.9958 31.3293 87.7107)" fill="#1B8354"/>
<rect opacity="0.62" x="62.6543" y="87.7131" width="25.0596" height="25.0596" rx="6.00463" transform="rotate(-89.9958 62.6543 87.7131)" fill="#54C08A"/>
<rect opacity="0.62" x="93.979" y="87.7156" width="25.0596" height="25.0596" rx="6.00463" transform="rotate(-89.9958 93.979 87.7156)" fill="#1B8354"/>
<rect opacity="0.62" x="219.256" y="432.301" width="25.0596" height="25.0596" rx="6.00463" transform="rotate(-89.9958 219.256 432.301)" fill="#1B8354"/>
<rect opacity="0.62" x="156.632" y="87.7197" width="25.0596" height="25.0596" rx="6.00463" transform="rotate(-89.9958 156.632 87.7197)" fill="#1B8354"/>
<rect opacity="0.62" x="187.957" y="87.7222" width="25.0596" height="25.0596" rx="6.00463" transform="rotate(-89.9958 187.957 87.7222)" fill="#54C08A"/>
<rect opacity="0.62" x="125.298" y="213.018" width="25.0596" height="25.0596" rx="6.00463" transform="rotate(-89.9958 125.298 213.018)" fill="#1B8354"/>
<rect opacity="0.62" x="156.623" y="213.02" width="25.0596" height="25.0596" rx="6.00463" transform="rotate(-89.9958 156.623 213.02)" fill="#1B8354"/>
<rect opacity="0.62" x="187.948" y="213.022" width="25.0596" height="25.0596" rx="6.00463" transform="rotate(-89.9958 187.948 213.022)" fill="#B8EACB"/>
<rect opacity="0.62" x="0.00683594" y="56.3833" width="25.0596" height="25.0596" rx="6.00463" transform="rotate(-89.9958 0.00683594 56.3833)" fill="#54C08A"/>
<rect opacity="0.62" x="31.3318" y="56.3862" width="25.0596" height="25.0596" rx="6.00463" transform="rotate(-89.9958 31.3318 56.3862)" fill="#1B8354"/>
<rect opacity="0.62" x="93.9814" y="56.3906" width="25.0596" height="25.0596" rx="6.00463" transform="rotate(-89.9958 93.9814 56.3906)" fill="#B8EACB"/>
<rect opacity="0.62" x="219.259" y="400.976" width="25.0596" height="25.0596" rx="6.00463" transform="rotate(-89.9958 219.259 400.976)" fill="#B8EACB"/>
<rect opacity="0.62" x="182.767" y="508.292" width="25.0596" height="25.0596" rx="6.00463" transform="rotate(-89.9958 182.767 508.292)" fill="#54C08A"/>
<rect opacity="0.62" x="182.769" y="476.968" width="25.0596" height="25.0596" rx="6.00463" transform="rotate(-89.9958 182.769 476.968)" fill="#1B8354"/>
<rect opacity="0.62" x="214.094" y="476.969" width="25.0596" height="25.0596" rx="6.00463" transform="rotate(-89.9958 214.094 476.969)" fill="#1B8354"/>
<rect opacity="0.62" x="164.002" y="552.342" width="25.0596" height="25.0596" rx="6.00463" transform="rotate(-89.9958 164.002 552.342)" fill="#1B8354"/>
<rect opacity="0.62" x="214.087" y="570.945" width="25.0596" height="25.0596" rx="6.00463" transform="rotate(-89.9958 214.087 570.945)" fill="#54C08A"/>
<rect opacity="0.62" x="214.089" y="539.619" width="25.0596" height="25.0596" rx="6.00463" transform="rotate(-89.9958 214.089 539.619)" fill="#B8EACB"/>
<rect opacity="0.62" x="218.092" y="56.3962" width="25.0596" height="25.0596" rx="6.00463" transform="rotate(-89.9958 218.092 56.3962)" fill="#B8EACB"/>
</svg>
