<svg width="479" height="206" viewBox="0 0 479 206" fill="none" xmlns="http://www.w3.org/2000/svg">
<rect opacity="0.35" x="152.653" y="100.42" width="21.0166" height="21.0166" rx="6.00463" transform="rotate(179.839 152.653 100.42)" fill="#B8EACB"/>
<rect opacity="0.35" x="152.506" y="47.8783" width="21.0166" height="21.0166" rx="6.00463" transform="rotate(179.839 152.506 47.8783)" fill="#1B8354"/>
<rect opacity="0.35" x="152.432" y="21.6074" width="21.0166" height="21.0166" rx="6.00463" transform="rotate(179.839 152.432 21.6074)" fill="#1B8354"/>
<rect opacity="0.35" x="21.5188" y="179.605" width="21.0166" height="21.0166" rx="6.00463" transform="rotate(179.839 21.5188 179.605)" fill="#1B8354"/>
<rect opacity="0.35" x="21.4448" y="153.334" width="21.0166" height="21.0166" rx="6.00463" transform="rotate(179.839 21.4448 153.334)" fill="#1B8354"/>
<rect opacity="0.35" x="310.133" y="47.4352" width="21.0166" height="21.0166" rx="6.00463" transform="rotate(179.839 310.133 47.4352)" fill="#1B8354"/>
<rect opacity="0.35" x="21.3711" y="127.063" width="21.0166" height="21.0166" rx="6.00463" transform="rotate(179.839 21.3711 127.063)" fill="#B8EACB"/>
<rect opacity="0.35" x="21.2971" y="100.789" width="21.0166" height="21.0166" rx="6.00463" transform="rotate(179.839 21.2971 100.789)" fill="#54C08A"/>
<rect opacity="0.35" x="21.2236" y="74.5186" width="21.0166" height="21.0166" rx="6.00463" transform="rotate(179.839 21.2236 74.5186)" fill="#1B8354"/>
<rect opacity="0.35" x="21.1497" y="48.2476" width="21.0166" height="21.0166" rx="6.00463" transform="rotate(179.839 21.1497 48.2476)" fill="#1B8354"/>
<rect opacity="0.35" x="257.664" y="73.8538" width="21.0166" height="21.0166" rx="6.00463" transform="rotate(179.839 257.664 73.8538)" fill="#1B8354"/>
<rect opacity="0.35" x="257.516" y="21.3119" width="21.0166" height="21.0166" rx="6.00463" transform="rotate(179.839 257.516 21.3119)" fill="#54C08A"/>
<rect opacity="0.35" x="126.678" y="205.58" width="21.0166" height="21.0166" rx="6.00463" transform="rotate(179.839 126.678 205.58)" fill="#1B8354"/>
<rect opacity="0.35" x="126.604" y="179.309" width="21.0166" height="21.0166" rx="6.00463" transform="rotate(179.839 126.604 179.309)" fill="#B8EACB"/>
<rect opacity="0.35" x="126.457" y="126.768" width="21.0166" height="21.0166" rx="6.00463" transform="rotate(179.839 126.457 126.768)" fill="#1B8354"/>
<rect opacity="0.35" x="126.383" y="100.494" width="21.0166" height="21.0166" rx="6.00463" transform="rotate(179.839 126.383 100.494)" fill="#1B8354"/>
<rect opacity="0.35" x="126.309" y="74.2231" width="21.0166" height="21.0166" rx="6.00463" transform="rotate(179.839 126.309 74.2231)" fill="#54C08A"/>
<rect opacity="0.35" x="283.862" y="47.5091" width="21.0166" height="21.0166" rx="6.00463" transform="rotate(179.839 283.862 47.5091)" fill="#1B8354"/>
<rect opacity="0.35" x="283.788" y="21.2381" width="21.0166" height="21.0166" rx="6.00463" transform="rotate(179.839 283.788 21.2381)" fill="#1B8354"/>
<rect opacity="0.35" x="231.393" y="73.9277" width="21.0166" height="21.0166" rx="6.00463" transform="rotate(179.839 231.393 73.9277)" fill="#1B8354"/>
<rect opacity="0.35" x="231.246" y="21.3858" width="21.0166" height="21.0166" rx="6.00463" transform="rotate(179.839 231.246 21.3858)" fill="#54C08A"/>
<rect opacity="0.35" x="347.121" y="63.0653" width="21.0166" height="21.0166" rx="6.00463" transform="rotate(179.839 347.121 63.0653)" fill="#1B8354"/>
<rect opacity="0.35" x="100.111" y="100.568" width="21.0166" height="21.0166" rx="6.00463" transform="rotate(179.839 100.111 100.568)" fill="#1B8354"/>
<rect opacity="0.35" x="99.9634" y="48.026" width="21.0166" height="21.0166" rx="6.00463" transform="rotate(179.839 99.9634 48.026)" fill="#1B8354"/>
<rect opacity="0.35" x="99.8892" y="21.7551" width="21.0166" height="21.0166" rx="6.00463" transform="rotate(179.839 99.8892 21.7551)" fill="#1B8354"/>
<rect opacity="0.35" x="205.122" y="74.0016" width="21.0166" height="21.0166" rx="6.00463" transform="rotate(179.839 205.122 74.0016)" fill="#54C08A"/>
<rect opacity="0.35" x="205.048" y="47.7306" width="21.0166" height="21.0166" rx="6.00463" transform="rotate(179.839 205.048 47.7306)" fill="#1B8354"/>
<rect opacity="0.35" x="204.974" y="21.4596" width="21.0166" height="21.0166" rx="6.00463" transform="rotate(179.839 204.974 21.4596)" fill="#1B8354"/>
<rect opacity="0.35" x="74.1355" y="205.728" width="21.0166" height="21.0166" rx="6.00463" transform="rotate(179.839 74.1355 205.728)" fill="#54C08A"/>
<rect opacity="0.35" x="74.0615" y="179.457" width="21.0166" height="21.0166" rx="6.00463" transform="rotate(179.839 74.0615 179.457)" fill="#1B8354"/>
<rect opacity="0.35" x="73.9878" y="153.186" width="21.0166" height="21.0166" rx="6.00463" transform="rotate(179.839 73.9878 153.186)" fill="#54C08A"/>
<rect opacity="0.35" x="73.9138" y="126.915" width="21.0166" height="21.0166" rx="6.00463" transform="rotate(179.839 73.9138 126.915)" fill="#1B8354"/>
<rect opacity="0.35" x="362.602" y="21.0165" width="21.0166" height="21.0166" rx="6.00463" transform="rotate(179.839 362.602 21.0165)" fill="#1B8354"/>
<rect opacity="0.35" x="73.7661" y="74.3708" width="21.0166" height="21.0166" rx="6.00463" transform="rotate(179.839 73.7661 74.3708)" fill="#1B8354"/>
<rect opacity="0.35" x="73.6921" y="48.0999" width="21.0166" height="21.0166" rx="6.00463" transform="rotate(179.839 73.6921 48.0999)" fill="#54C08A"/>
<rect opacity="0.35" x="178.851" y="74.0754" width="21.0166" height="21.0166" rx="6.00463" transform="rotate(179.839 178.851 74.0754)" fill="#1B8354"/>
<rect opacity="0.35" x="178.777" y="47.8044" width="21.0166" height="21.0166" rx="6.00463" transform="rotate(179.839 178.777 47.8044)" fill="#B8EACB"/>
<rect opacity="0.35" x="47.8645" y="205.802" width="21.0166" height="21.0166" rx="6.00463" transform="rotate(179.839 47.8645 205.802)" fill="#54C08A"/>
<rect opacity="0.35" x="47.7908" y="179.531" width="21.0166" height="21.0166" rx="6.00463" transform="rotate(179.839 47.7908 179.531)" fill="#1B8354"/>
<rect opacity="0.35" x="47.6431" y="126.989" width="21.0166" height="21.0166" rx="6.00463" transform="rotate(179.839 47.6431 126.989)" fill="#B8EACB"/>
<rect opacity="0.35" x="336.33" y="21.0904" width="21.0166" height="21.0166" rx="6.00463" transform="rotate(179.839 336.33 21.0904)" fill="#B8EACB"/>
<rect opacity="0.35" x="426.42" y="51.4352" width="21.0166" height="21.0166" rx="6.00463" transform="rotate(179.839 426.42 51.4352)" fill="#54C08A"/>
<rect opacity="0.35" x="400.15" y="51.509" width="21.0166" height="21.0166" rx="6.00463" transform="rotate(179.839 400.15 51.509)" fill="#1B8354"/>
<rect opacity="0.35" x="400.076" y="25.2381" width="21.0166" height="21.0166" rx="6.00463" transform="rotate(179.839 400.076 25.2381)" fill="#1B8354"/>
<rect opacity="0.35" x="463.409" y="67.0653" width="21.0166" height="21.0166" rx="6.00463" transform="rotate(179.839 463.409 67.0653)" fill="#1B8354"/>
<rect opacity="0.35" x="478.889" y="25.0165" width="21.0166" height="21.0166" rx="6.00463" transform="rotate(179.839 478.889 25.0165)" fill="#54C08A"/>
<rect opacity="0.35" x="452.618" y="25.0903" width="21.0166" height="21.0166" rx="6.00463" transform="rotate(179.839 452.618 25.0903)" fill="#B8EACB"/>
<rect opacity="0.35" x="47.3477" y="22.9028" width="21.0166" height="21.0166" rx="6.00463" transform="rotate(179.839 47.3477 22.9028)" fill="#B8EACB"/>
</svg>
