<svg width="245" height="571" viewBox="0 0 245 571" fill="none" xmlns="http://www.w3.org/2000/svg">
<g opacity="0.6">
<rect opacity="0.45" width="25.0596" height="25.0596" rx="6.00463" transform="matrix(-7.26892e-05 -1 -1 7.26892e-05 119.041 181.693)" fill="#F3F4F6"/>
<rect opacity="0.45" width="25.0596" height="25.0596" rx="6.00463" transform="matrix(-7.26892e-05 -1 -1 7.26892e-05 56.391 181.698)" fill="#D2D6DB"/>
<rect opacity="0.45" width="25.0596" height="25.0596" rx="6.00463" transform="matrix(-7.26892e-05 -1 -1 7.26892e-05 25.0663 181.699)" fill="#D2D6DB"/>
<rect opacity="0.45" width="25.0596" height="25.0596" rx="6.00463" transform="matrix(-7.26892e-05 -1 -1 7.26892e-05 213.007 25.0596)" fill="#D2D6DB"/>
<rect opacity="0.45" width="25.0596" height="25.0596" rx="6.00463" transform="matrix(-7.26892e-05 -1 -1 7.26892e-05 181.682 25.062)" fill="#D2D6DB"/>
<rect opacity="0.45" width="25.0596" height="25.0596" rx="6.00463" transform="matrix(-7.26892e-05 -1 -1 7.26892e-05 56.4042 369.648)" fill="#D2D6DB"/>
<rect opacity="0.45" width="25.0596" height="25.0596" rx="6.00463" transform="matrix(-7.26892e-05 -1 -1 7.26892e-05 150.357 25.0645)" fill="#F3F4F6"/>
<rect opacity="0.45" width="25.0596" height="25.0596" rx="6.00463" transform="matrix(-7.26892e-05 -1 -1 7.26892e-05 119.029 25.0664)" fill="#E5E7EB"/>
<rect opacity="0.45" width="25.0596" height="25.0596" rx="6.00463" transform="matrix(-7.26892e-05 -1 -1 7.26892e-05 87.7045 25.0693)" fill="#D2D6DB"/>
<rect opacity="0.45" width="25.0596" height="25.0596" rx="6.00463" transform="matrix(-7.26892e-05 -1 -1 7.26892e-05 56.3793 25.071)" fill="#D2D6DB"/>
<rect opacity="0.45" width="25.0596" height="25.0596" rx="6.00463" transform="matrix(-7.26892e-05 -1 -1 7.26892e-05 87.725 306.995)" fill="#D2D6DB"/>
<rect opacity="0.45" width="25.0596" height="25.0596" rx="6.00463" transform="matrix(-7.26892e-05 -1 -1 7.26892e-05 25.0751 307)" fill="#E5E7EB"/>
<rect opacity="0.45" width="25.0596" height="25.0596" rx="6.00463" transform="matrix(-7.26892e-05 -1 -1 7.26892e-05 244.341 150.359)" fill="#D2D6DB"/>
<rect opacity="0.45" width="25.0596" height="25.0596" rx="6.00463" transform="matrix(-7.26892e-05 -1 -1 7.26892e-05 213.016 150.362)" fill="#F3F4F6"/>
<rect opacity="0.45" width="25.0596" height="25.0596" rx="6.00463" transform="matrix(-7.26892e-05 -1 -1 7.26892e-05 150.366 150.366)" fill="#D2D6DB"/>
<rect opacity="0.45" width="25.0596" height="25.0596" rx="6.00463" transform="matrix(-7.26892e-05 -1 -1 7.26892e-05 119.038 150.368)" fill="#D2D6DB"/>
<rect opacity="0.45" width="25.0596" height="25.0596" rx="6.00463" transform="matrix(-7.26892e-05 -1 -1 7.26892e-05 87.7133 150.37)" fill="#E5E7EB"/>
<rect opacity="0.45" width="25.0596" height="25.0596" rx="6.00463" transform="matrix(-7.26892e-05 -1 -1 7.26892e-05 181.693 181.688)" fill="#D2D6DB"/>
<rect opacity="0.45" width="25.0596" height="25.0596" rx="6.00463" transform="matrix(-7.26892e-05 -1 -1 7.26892e-05 56.4022 338.324)" fill="#D2D6DB"/>
<rect opacity="0.45" width="25.0596" height="25.0596" rx="6.00463" transform="matrix(-7.26892e-05 -1 -1 7.26892e-05 25.0775 338.326)" fill="#D2D6DB"/>
<rect opacity="0.45" width="25.0596" height="25.0596" rx="6.00463" transform="matrix(-7.26892e-05 -1 -1 7.26892e-05 87.7225 275.671)" fill="#D2D6DB"/>
<rect opacity="0.45" width="25.0596" height="25.0596" rx="6.00463" transform="matrix(-7.26892e-05 -1 -1 7.26892e-05 25.0726 275.675)" fill="#E5E7EB"/>
<rect opacity="0.45" width="25.0596" height="25.0596" rx="6.00463" transform="matrix(-7.26892e-05 -1 -1 7.26892e-05 75.1688 413.698)" fill="#D2D6DB"/>
<rect opacity="0.45" width="25.0596" height="25.0596" rx="6.00463" transform="matrix(-7.26892e-05 -1 -1 7.26892e-05 150.369 181.691)" fill="#E5E7EB"/>
<rect opacity="0.45" width="25.0596" height="25.0596" rx="6.00463" transform="matrix(-7.26892e-05 -1 -1 7.26892e-05 119.036 119.042)" fill="#D2D6DB"/>
<rect opacity="0.45" width="25.0596" height="25.0596" rx="6.00463" transform="matrix(-7.26892e-05 -1 -1 7.26892e-05 118.061 88.0596)" fill="#D2D6DB"/>
<rect opacity="0.45" width="25.0596" height="25.0596" rx="6.00463" transform="matrix(-7.26892e-05 -1 -1 7.26892e-05 212.061 150.06)" fill="#E5E7EB"/>
<rect opacity="0.45" width="25.0596" height="25.0596" rx="6.00463" transform="matrix(-7.26892e-05 -1 -1 7.26892e-05 56.3861 119.047)" fill="#D2D6DB"/>
<rect opacity="0.45" width="25.0596" height="25.0596" rx="6.00463" transform="matrix(-7.26892e-05 -1 -1 7.26892e-05 25.0614 119.049)" fill="#D2D6DB"/>
<rect opacity="0.45" width="25.0596" height="25.0596" rx="6.00463" transform="matrix(-7.26892e-05 -1 -1 7.26892e-05 87.7201 244.345)" fill="#E5E7EB"/>
<rect opacity="0.45" width="25.0596" height="25.0596" rx="6.00463" transform="matrix(-7.26892e-05 -1 -1 7.26892e-05 56.3954 244.347)" fill="#D2D6DB"/>
<rect opacity="0.45" width="25.0596" height="25.0596" rx="6.00463" transform="matrix(-7.26892e-05 -1 -1 7.26892e-05 25.0702 244.35)" fill="#D2D6DB"/>
<rect opacity="0.45" width="25.0596" height="25.0596" rx="6.00463" transform="matrix(-7.26892e-05 -1 -1 7.26892e-05 244.336 87.7087)" fill="#E5E7EB"/>
<rect opacity="0.45" width="25.0596" height="25.0596" rx="6.00463" transform="matrix(-7.26892e-05 -1 -1 7.26892e-05 213.012 87.7107)" fill="#D2D6DB"/>
<rect opacity="0.45" width="25.0596" height="25.0596" rx="6.00463" transform="matrix(-7.26892e-05 -1 -1 7.26892e-05 181.686 87.7131)" fill="#E5E7EB"/>
<rect opacity="0.45" width="25.0596" height="25.0596" rx="6.00463" transform="matrix(-7.26892e-05 -1 -1 7.26892e-05 150.362 87.7156)" fill="#D2D6DB"/>
<rect opacity="0.45" width="25.0596" height="25.0596" rx="6.00463" transform="matrix(-7.26892e-05 -1 -1 7.26892e-05 25.0844 432.301)" fill="#D2D6DB"/>
<rect opacity="0.45" width="25.0596" height="25.0596" rx="6.00463" transform="matrix(-7.26892e-05 -1 -1 7.26892e-05 87.7089 87.7197)" fill="#D2D6DB"/>
<rect opacity="0.45" width="25.0596" height="25.0596" rx="6.00463" transform="matrix(-7.26892e-05 -1 -1 7.26892e-05 56.3842 87.7222)" fill="#E5E7EB"/>
<rect opacity="0.45" width="25.0596" height="25.0596" rx="6.00463" transform="matrix(-7.26892e-05 -1 -1 7.26892e-05 119.043 213.018)" fill="#D2D6DB"/>
<rect opacity="0.45" width="25.0596" height="25.0596" rx="6.00463" transform="matrix(-7.26892e-05 -1 -1 7.26892e-05 87.7177 213.02)" fill="#D2D6DB"/>
<rect opacity="0.45" width="25.0596" height="25.0596" rx="6.00463" transform="matrix(-7.26892e-05 -1 -1 7.26892e-05 56.3934 213.022)" fill="#F3F4F6"/>
<rect opacity="0.45" width="25.0596" height="25.0596" rx="6.00463" transform="matrix(-7.26892e-05 -1 -1 7.26892e-05 244.334 56.3833)" fill="#E5E7EB"/>
<rect opacity="0.45" width="25.0596" height="25.0596" rx="6.00463" transform="matrix(-7.26892e-05 -1 -1 7.26892e-05 213.009 56.3862)" fill="#D2D6DB"/>
<rect opacity="0.45" width="25.0596" height="25.0596" rx="6.00463" transform="matrix(-7.26892e-05 -1 -1 7.26892e-05 150.359 56.3906)" fill="#F3F4F6"/>
<rect opacity="0.45" width="25.0596" height="25.0596" rx="6.00463" transform="matrix(-7.26892e-05 -1 -1 7.26892e-05 25.0819 400.976)" fill="#F3F4F6"/>
<rect opacity="0.45" width="25.0596" height="25.0596" rx="6.00463" transform="matrix(-7.26892e-05 -1 -1 7.26892e-05 61.5741 508.292)" fill="#E5E7EB"/>
<rect opacity="0.45" width="25.0596" height="25.0596" rx="6.00463" transform="matrix(-7.26892e-05 -1 -1 7.26892e-05 61.5717 476.968)" fill="#D2D6DB"/>
<rect opacity="0.45" width="25.0596" height="25.0596" rx="6.00463" transform="matrix(-7.26892e-05 -1 -1 7.26892e-05 30.2465 476.969)" fill="#D2D6DB"/>
<rect opacity="0.45" width="25.0596" height="25.0596" rx="6.00463" transform="matrix(-7.26892e-05 -1 -1 7.26892e-05 80.3383 552.342)" fill="#D2D6DB"/>
<rect opacity="0.45" width="25.0596" height="25.0596" rx="6.00463" transform="matrix(-7.26892e-05 -1 -1 7.26892e-05 30.2538 570.945)" fill="#E5E7EB"/>
<rect opacity="0.45" width="25.0596" height="25.0596" rx="6.00463" transform="matrix(-7.26892e-05 -1 -1 7.26892e-05 30.2513 539.619)" fill="#F3F4F6"/>
<rect opacity="0.45" width="25.0596" height="25.0596" rx="6.00463" transform="matrix(-7.26892e-05 -1 -1 7.26892e-05 26.2489 56.3962)" fill="#F3F4F6"/>
</g>
</svg>
