<svg width="88" height="290" viewBox="0 0 88 290" fill="none" xmlns="http://www.w3.org/2000/svg">
<g opacity="0.45">
<rect opacity="0.45" x="31.3208" y="87.7125" width="25.0596" height="25.0596" rx="6.00463" transform="rotate(-89.9958 31.3208 87.7125)" fill="#D2D6DB"/>
<rect opacity="0.45" y="25.0596" width="25.0596" height="25.0596" rx="6.00463" transform="rotate(-89.9958 0 25.0596)" fill="#D2D6DB"/>
<rect opacity="0.45" x="62.6499" y="25.0646" width="25.0596" height="25.0596" rx="6.00463" transform="rotate(-89.9958 62.6499 25.0646)" fill="#E5E7EB"/>
<rect opacity="0.45" x="31.3228" y="56.3882" width="25.0596" height="25.0596" rx="6.00463" transform="rotate(-89.9958 31.3228 56.3882)" fill="#D2D6DB"/>
<rect opacity="0.45" x="62.6475" y="56.3901" width="25.0596" height="25.0596" rx="6.00463" transform="rotate(-89.9958 62.6475 56.3901)" fill="#D2D6DB"/>
<rect opacity="0.45" x="12.5562" y="131.762" width="25.0596" height="25.0596" rx="6.00463" transform="rotate(-89.9958 12.5562 131.762)" fill="#D2D6DB"/>
<rect opacity="0.45" x="62.6406" y="150.365" width="25.0596" height="25.0596" rx="6.00463" transform="rotate(-89.9958 62.6406 150.365)" fill="#D2D6DB"/>
<rect opacity="0.45" x="62.6431" y="119.04" width="25.0596" height="25.0596" rx="6.00463" transform="rotate(-89.9958 62.6431 119.04)" fill="#F3F4F6"/>
<rect opacity="0.45" x="26.1509" y="226.356" width="25.0596" height="25.0596" rx="6.00463" transform="rotate(-89.9958 26.1509 226.356)" fill="#E5E7EB"/>
<rect opacity="0.45" x="26.1533" y="195.032" width="25.0596" height="25.0596" rx="6.00463" transform="rotate(-89.9958 26.1533 195.032)" fill="#D2D6DB"/>
<rect opacity="0.45" x="57.4785" y="195.034" width="25.0596" height="25.0596" rx="6.00463" transform="rotate(-89.9958 57.4785 195.034)" fill="#D2D6DB"/>
<rect opacity="0.45" x="7.38672" y="270.406" width="25.0596" height="25.0596" rx="6.00463" transform="rotate(-89.9958 7.38672 270.406)" fill="#D2D6DB"/>
<rect opacity="0.45" x="57.4712" y="289.009" width="25.0596" height="25.0596" rx="6.00463" transform="rotate(-89.9958 57.4712 289.009)" fill="#E5E7EB"/>
<rect opacity="0.45" x="57.4736" y="257.684" width="25.0596" height="25.0596" rx="6.00463" transform="rotate(-89.9958 57.4736 257.684)" fill="#F3F4F6"/>
</g>
</svg>
