<svg width="192" height="571" viewBox="0 0 192 571" fill="none" xmlns="http://www.w3.org/2000/svg">
<g opacity="0.6">
<rect opacity="0.45" x="119.041" y="389.254" width="25.0596" height="25.0596" rx="6.00463" transform="rotate(90.0042 119.041 389.254)" fill="#F3F4F6"/>
<rect opacity="0.45" x="56.391" y="389.249" width="25.0596" height="25.0596" rx="6.00463" transform="rotate(90.0042 56.391 389.249)" fill="#D2D6DB"/>
<rect opacity="0.45" x="25.0663" y="389.247" width="25.0596" height="25.0596" rx="6.00463" transform="rotate(90.0042 25.0663 389.247)" fill="#D2D6DB"/>
<rect opacity="0.45" x="213.007" y="545.887" width="25.0596" height="25.0596" rx="6.00463" transform="rotate(90.0042 213.007 545.887)" fill="#D2D6DB"/>
<rect opacity="0.45" x="181.682" y="545.885" width="25.0596" height="25.0596" rx="6.00463" transform="rotate(90.0042 181.682 545.885)" fill="#D2D6DB"/>
<rect opacity="0.45" x="56.4042" y="201.298" width="25.0596" height="25.0596" rx="6.00463" transform="rotate(90.0042 56.4042 201.298)" fill="#D2D6DB"/>
<rect opacity="0.45" x="150.357" y="545.882" width="25.0596" height="25.0596" rx="6.00463" transform="rotate(90.0042 150.357 545.882)" fill="#F3F4F6"/>
<rect opacity="0.45" x="119.029" y="545.88" width="25.0596" height="25.0596" rx="6.00463" transform="rotate(90.0042 119.029 545.88)" fill="#E5E7EB"/>
<rect opacity="0.45" x="87.7045" y="545.877" width="25.0596" height="25.0596" rx="6.00463" transform="rotate(90.0042 87.7045 545.877)" fill="#D2D6DB"/>
<rect opacity="0.45" x="56.3793" y="545.876" width="25.0596" height="25.0596" rx="6.00463" transform="rotate(90.0042 56.3793 545.876)" fill="#D2D6DB"/>
<rect opacity="0.45" x="87.725" y="263.951" width="25.0596" height="25.0596" rx="6.00463" transform="rotate(90.0042 87.725 263.951)" fill="#D2D6DB"/>
<rect opacity="0.45" x="25.0751" y="263.946" width="25.0596" height="25.0596" rx="6.00463" transform="rotate(90.0042 25.0751 263.946)" fill="#E5E7EB"/>
<rect opacity="0.45" x="213.016" y="420.585" width="25.0596" height="25.0596" rx="6.00463" transform="rotate(90.0042 213.016 420.585)" fill="#F3F4F6"/>
<rect opacity="0.45" x="150.366" y="420.581" width="25.0596" height="25.0596" rx="6.00463" transform="rotate(90.0042 150.366 420.581)" fill="#D2D6DB"/>
<rect opacity="0.45" x="119.038" y="420.578" width="25.0596" height="25.0596" rx="6.00463" transform="rotate(90.0042 119.038 420.578)" fill="#D2D6DB"/>
<rect opacity="0.45" x="87.7133" y="420.577" width="25.0596" height="25.0596" rx="6.00463" transform="rotate(90.0042 87.7133 420.577)" fill="#E5E7EB"/>
<rect opacity="0.45" x="181.693" y="389.259" width="25.0596" height="25.0596" rx="6.00463" transform="rotate(90.0042 181.693 389.259)" fill="#D2D6DB"/>
<rect opacity="0.45" x="56.4022" y="232.623" width="25.0596" height="25.0596" rx="6.00463" transform="rotate(90.0042 56.4022 232.623)" fill="#D2D6DB"/>
<rect opacity="0.45" x="25.0775" y="232.621" width="25.0596" height="25.0596" rx="6.00463" transform="rotate(90.0042 25.0775 232.621)" fill="#D2D6DB"/>
<rect opacity="0.45" x="87.7225" y="295.276" width="25.0596" height="25.0596" rx="6.00463" transform="rotate(90.0042 87.7225 295.276)" fill="#D2D6DB"/>
<rect opacity="0.45" x="25.0726" y="295.271" width="25.0596" height="25.0596" rx="6.00463" transform="rotate(90.0042 25.0726 295.271)" fill="#E5E7EB"/>
<rect opacity="0.45" x="75.1688" y="157.249" width="25.0596" height="25.0596" rx="6.00463" transform="rotate(90.0042 75.1688 157.249)" fill="#D2D6DB"/>
<rect opacity="0.45" x="150.369" y="389.256" width="25.0596" height="25.0596" rx="6.00463" transform="rotate(90.0042 150.369 389.256)" fill="#E5E7EB"/>
<rect opacity="0.45" x="119.036" y="451.905" width="25.0596" height="25.0596" rx="6.00463" transform="rotate(90.0042 119.036 451.905)" fill="#D2D6DB"/>
<rect opacity="0.45" x="118.061" y="482.887" width="25.0596" height="25.0596" rx="6.00463" transform="rotate(90.0042 118.061 482.887)" fill="#D2D6DB"/>
<rect opacity="0.45" x="212.061" y="420.887" width="25.0596" height="25.0596" rx="6.00463" transform="rotate(90.0042 212.061 420.887)" fill="#E5E7EB"/>
<rect opacity="0.45" x="56.3861" y="451.9" width="25.0596" height="25.0596" rx="6.00463" transform="rotate(90.0042 56.3861 451.9)" fill="#D2D6DB"/>
<rect opacity="0.45" x="25.0614" y="451.898" width="25.0596" height="25.0596" rx="6.00463" transform="rotate(90.0042 25.0614 451.898)" fill="#D2D6DB"/>
<rect opacity="0.45" x="87.7201" y="326.601" width="25.0596" height="25.0596" rx="6.00463" transform="rotate(90.0042 87.7201 326.601)" fill="#E5E7EB"/>
<rect opacity="0.45" x="56.3954" y="326.599" width="25.0596" height="25.0596" rx="6.00463" transform="rotate(90.0042 56.3954 326.599)" fill="#D2D6DB"/>
<rect opacity="0.45" x="25.0702" y="326.597" width="25.0596" height="25.0596" rx="6.00463" transform="rotate(90.0042 25.0702 326.597)" fill="#D2D6DB"/>
<rect opacity="0.45" x="213.012" y="483.236" width="25.0596" height="25.0596" rx="6.00463" transform="rotate(90.0042 213.012 483.236)" fill="#D2D6DB"/>
<rect opacity="0.45" x="181.686" y="483.234" width="25.0596" height="25.0596" rx="6.00463" transform="rotate(90.0042 181.686 483.234)" fill="#E5E7EB"/>
<rect opacity="0.45" x="150.362" y="483.231" width="25.0596" height="25.0596" rx="6.00463" transform="rotate(90.0042 150.362 483.231)" fill="#D2D6DB"/>
<rect opacity="0.45" x="25.0844" y="138.646" width="25.0596" height="25.0596" rx="6.00463" transform="rotate(90.0042 25.0844 138.646)" fill="#D2D6DB"/>
<rect opacity="0.45" x="87.7089" y="483.227" width="25.0596" height="25.0596" rx="6.00463" transform="rotate(90.0042 87.7089 483.227)" fill="#D2D6DB"/>
<rect opacity="0.45" x="56.3842" y="483.225" width="25.0596" height="25.0596" rx="6.00463" transform="rotate(90.0042 56.3842 483.225)" fill="#E5E7EB"/>
<rect opacity="0.45" x="119.043" y="357.928" width="25.0596" height="25.0596" rx="6.00463" transform="rotate(90.0042 119.043 357.928)" fill="#D2D6DB"/>
<rect opacity="0.45" x="87.7177" y="357.927" width="25.0596" height="25.0596" rx="6.00463" transform="rotate(90.0042 87.7177 357.927)" fill="#D2D6DB"/>
<rect opacity="0.45" x="56.3934" y="357.924" width="25.0596" height="25.0596" rx="6.00463" transform="rotate(90.0042 56.3934 357.924)" fill="#F3F4F6"/>
<rect opacity="0.45" x="213.009" y="514.561" width="25.0596" height="25.0596" rx="6.00463" transform="rotate(90.0042 213.009 514.561)" fill="#D2D6DB"/>
<rect opacity="0.45" x="150.359" y="514.556" width="25.0596" height="25.0596" rx="6.00463" transform="rotate(90.0042 150.359 514.556)" fill="#F3F4F6"/>
<rect opacity="0.45" x="25.0819" y="169.971" width="25.0596" height="25.0596" rx="6.00463" transform="rotate(90.0042 25.0819 169.971)" fill="#F3F4F6"/>
<rect opacity="0.45" x="61.5741" y="62.6547" width="25.0596" height="25.0596" rx="6.00463" transform="rotate(90.0042 61.5741 62.6547)" fill="#E5E7EB"/>
<rect opacity="0.45" x="61.5717" y="93.979" width="25.0596" height="25.0596" rx="6.00463" transform="rotate(90.0042 61.5717 93.979)" fill="#D2D6DB"/>
<rect opacity="0.45" x="30.2465" y="93.9773" width="25.0596" height="25.0596" rx="6.00463" transform="rotate(90.0042 30.2465 93.9773)" fill="#D2D6DB"/>
<rect opacity="0.45" x="80.3383" y="18.6047" width="25.0596" height="25.0596" rx="6.00463" transform="rotate(90.0042 80.3383 18.6047)" fill="#D2D6DB"/>
<rect opacity="0.45" x="30.2538" y="0.00183105" width="25.0596" height="25.0596" rx="6.00463" transform="rotate(90.0042 30.2538 0.00183105)" fill="#E5E7EB"/>
<rect opacity="0.45" x="30.2513" y="31.3274" width="25.0596" height="25.0596" rx="6.00463" transform="rotate(90.0042 30.2513 31.3274)" fill="#F3F4F6"/>
<rect opacity="0.45" x="26.2489" y="514.551" width="25.0596" height="25.0596" rx="6.00463" transform="rotate(90.0042 26.2489 514.551)" fill="#F3F4F6"/>
</g>
</svg>
