<svg width="120" height="213" viewBox="0 0 120 213" fill="none" xmlns="http://www.w3.org/2000/svg">
<g opacity="0.53">
<rect opacity="0.45" x="0.00195312" y="56.0642" width="25.0596" height="25.0596" rx="6.00463" transform="rotate(-89.9958 0.00195312 56.0642)" fill="#F3F4F6"/>
<rect opacity="0.45" x="62.6519" y="56.0691" width="25.0596" height="25.0596" rx="6.00463" transform="rotate(-89.9958 62.6519 56.0691)" fill="#D2D6DB"/>
<rect opacity="0.45" x="93.9766" y="56.071" width="25.0596" height="25.0596" rx="6.00463" transform="rotate(-89.9958 93.9766 56.071)" fill="#D2D6DB"/>
<rect opacity="0.45" x="31.3179" y="181.367" width="25.0596" height="25.0596" rx="6.00463" transform="rotate(-89.9958 31.3179 181.367)" fill="#D2D6DB"/>
<rect opacity="0.45" x="93.9678" y="181.372" width="25.0596" height="25.0596" rx="6.00463" transform="rotate(-89.9958 93.9678 181.372)" fill="#E5E7EB"/>
<rect opacity="0.45" x="31.3497" y="25.0596" width="25.0596" height="25.0596" rx="6.00463" transform="rotate(-89.9958 31.3497 25.0596)" fill="#D2D6DB"/>
<rect opacity="0.45" x="93.9653" y="212.698" width="25.0596" height="25.0596" rx="6.00463" transform="rotate(-89.9958 93.9653 212.698)" fill="#D2D6DB"/>
<rect opacity="0.45" x="31.3203" y="150.043" width="25.0596" height="25.0596" rx="6.00463" transform="rotate(-89.9958 31.3203 150.043)" fill="#D2D6DB"/>
<rect opacity="0.45" x="93.9702" y="150.047" width="25.0596" height="25.0596" rx="6.00463" transform="rotate(-89.9958 93.9702 150.047)" fill="#E5E7EB"/>
<rect opacity="0.45" x="62.6744" y="25.0625" width="25.0596" height="25.0596" rx="6.00463" transform="rotate(-89.9958 62.6744 25.0625)" fill="#E5E7EB"/>
<rect opacity="0.45" x="31.3228" y="118.717" width="25.0596" height="25.0596" rx="6.00463" transform="rotate(-89.9958 31.3228 118.717)" fill="#E5E7EB"/>
<rect opacity="0.45" x="62.6475" y="118.719" width="25.0596" height="25.0596" rx="6.00463" transform="rotate(-89.9958 62.6475 118.719)" fill="#D2D6DB"/>
<rect opacity="0.45" x="93.9727" y="118.721" width="25.0596" height="25.0596" rx="6.00463" transform="rotate(-89.9958 93.9727 118.721)" fill="#D2D6DB"/>
<rect opacity="0.45" y="87.3899" width="25.0596" height="25.0596" rx="6.00463" transform="rotate(-89.9958 0 87.3899)" fill="#D2D6DB"/>
<rect opacity="0.45" x="31.3252" y="87.3916" width="25.0596" height="25.0596" rx="6.00463" transform="rotate(-89.9958 31.3252 87.3916)" fill="#D2D6DB"/>
<rect opacity="0.45" x="62.6494" y="87.394" width="25.0596" height="25.0596" rx="6.00463" transform="rotate(-89.9958 62.6494 87.394)" fill="#F3F4F6"/>
</g>
</svg>
