<svg width="60" height="61" viewBox="0 0 60 61" fill="none" xmlns="http://www.w3.org/2000/svg">
<g clip-path="url(#clip0_50_1591)">
<path d="M19.0635 23.8911C18.9035 23.5771 18.5905 23.3711 18.2396 23.3481L9.82723 22.7872C9.3913 22.7442 8.98829 23.0142 8.82927 23.4201L2.76476 38.9189C2.60175 39.3349 2.73476 39.8079 3.09077 40.0788C3.26878 40.2148 3.48276 40.2829 3.69569 40.2829C3.90662 40.2829 4.11768 40.2169 4.29568 40.0829L9.32931 36.3083L12.2601 36.8942C12.7381 36.9892 13.216 36.7272 13.39 36.2703C14.964 32.1476 16.8588 28.3139 19.0196 24.8772C19.2066 24.579 19.2236 24.204 19.0635 23.8911ZM11.8281 34.7682L9.28231 34.2593C9.00435 34.2043 8.71431 34.2703 8.48638 34.4402L5.90758 36.374L10.4242 24.8309L16.4617 25.2329C14.7219 28.1777 13.168 31.3754 11.8281 34.7682Z" fill="#1B8354"/>
<path d="M37.7131 50.6741L37.1522 42.2607C37.1281 41.9086 36.9221 41.5957 36.6082 41.4357C36.2952 41.2757 35.9202 41.2916 35.6223 41.4796C32.1845 43.6404 28.3518 45.5353 24.2292 47.1091C23.7732 47.2821 23.5092 47.7601 23.6053 48.239L24.1912 51.1699L20.4165 56.2024C20.1485 56.5604 20.1496 57.0524 20.4205 57.4084C20.6135 57.6623 20.9105 57.8033 21.2165 57.8033C21.3384 57.8033 21.4615 57.7803 21.5814 57.7363L37.0802 51.6718C37.4861 51.513 37.7421 51.1089 37.7131 50.6741ZM24.1251 54.5908L26.0589 52.012C26.229 51.785 26.295 51.4951 26.2389 51.216L25.73 48.6712C29.1237 47.3313 32.3205 45.7774 35.2652 44.0376L35.6682 50.0741L24.1251 54.5908Z" fill="#1B8354"/>
<path d="M28.9978 30.5005H22.2603C21.8973 30.5005 21.5634 30.6975 21.3863 31.0145L12.9299 46.2094C12.7099 46.6054 12.7839 47.1013 13.1099 47.4153C13.3009 47.5993 13.5518 47.6953 13.8039 47.6953C13.9819 47.6953 14.1608 47.6483 14.3208 47.5503L29.5156 38.3551C29.8146 38.1741 29.9976 37.8501 29.9976 37.5002V31.5005C29.9977 30.9486 29.5497 30.5005 28.9978 30.5005ZM27.9979 36.9371L16.5098 43.8896L22.8474 32.5014V32.5003H27.9979V36.9371Z" fill="#1B8354"/>
<path d="M59.9495 1.46374C59.9085 0.97683 59.5226 0.590818 59.0356 0.549803C58.7036 0.523788 25.7751 -1.77506 11.5222 35.5562C11.3813 35.9252 11.4702 36.3411 11.7492 36.6201L16.5038 41.3747C16.7268 41.5977 17.0388 41.6997 17.3518 41.6577C17.6628 41.6127 17.9348 41.4248 18.0868 41.1497L22.8504 32.5004H27.9981V36.9491L19.2967 42.4426C19.0397 42.6056 18.8708 42.8756 18.8368 43.1776C18.8028 43.4796 18.9087 43.7805 19.1238 43.9956L23.8784 48.7502C24.0694 48.9412 24.3244 49.0432 24.5853 49.0432C24.7053 49.0432 24.8263 49.0222 24.9423 48.9772C62.2753 34.7232 59.9775 1.79479 59.9495 1.46374ZM54.7039 19.2045C51.1951 27.8857 43.1657 39.6879 24.8321 46.8764L21.4224 43.4666L29.5318 38.347C29.8217 38.163 29.9977 37.844 29.9977 37.501V31.5014C29.9977 30.9495 29.5497 30.5015 28.9978 30.5015H22.2583C21.8933 30.5015 21.5583 30.7004 21.3823 31.0194L16.9756 39.0208L13.6229 35.667C26.135 3.74758 52.805 2.44166 57.9896 2.51467C58.0266 4.84656 57.8126 11.512 54.7039 19.2045Z" fill="#1B8354"/>
<path d="M17.1286 44.6645C16.9116 44.3766 16.5656 44.2365 16.2266 44.2725C16.2617 43.9325 16.1216 43.5876 15.8346 43.3705C14.3268 42.2307 12.3809 41.8517 10.4941 42.3296C8.49127 42.8385 6.85336 44.2044 6.00141 46.0793L0.0899437 59.0853C-0.0830233 59.4652 -0.00204756 59.9123 0.292911 60.2062C0.483924 60.3982 0.739859 60.4992 0.999896 60.4992C1.13993 60.4992 1.28091 60.4692 1.41392 60.4092L14.42 54.4967C16.2938 53.6458 17.6597 52.0079 18.1686 50.005C18.6476 48.1202 18.2686 46.1734 17.1286 44.6645ZM16.2307 49.5131C15.8727 50.924 14.9109 52.0769 13.593 52.6769L3.01374 57.4855L7.82237 46.9053C8.42131 45.5875 9.57524 44.6255 10.9862 44.2676C11.3572 44.1736 11.7301 44.1275 12.098 44.1275C12.721 44.1275 13.3299 44.2606 13.8849 44.5195L12.933 46.2044C12.712 46.5954 12.779 47.0864 13.0969 47.4034C13.4149 47.7224 13.9059 47.7883 14.2959 47.5673L15.9808 46.6144C16.3907 47.4963 16.4837 48.5151 16.2307 49.5131Z" fill="#1B8354"/>
<path d="M59.9495 1.46483C59.9085 0.977918 59.5225 0.591907 59.0355 0.550891C58.6455 0.519837 49.3762 -0.182109 38.4751 4.83956C38.1781 4.9755 37.9671 5.24948 37.9091 5.57151C37.8511 5.89353 37.9551 6.22341 38.1861 6.45439L54.0449 22.3132C54.2339 22.5022 54.4889 22.6062 54.7519 22.6062C54.8109 22.6062 54.8699 22.6011 54.9289 22.5912C55.2509 22.5332 55.5238 22.3222 55.6608 22.0252C60.6834 11.124 59.9815 1.85377 59.9495 1.46483ZM54.4279 19.8664L40.6329 6.07142C48.6133 2.70267 55.6018 2.47064 57.9906 2.51072C58.0306 4.90155 57.8056 11.868 54.4279 19.8664Z" fill="#1B8354"/>
<path d="M44.1606 16.3387C40.7978 12.9759 35.3273 12.9759 31.9646 16.3387C28.6018 19.7014 28.6018 25.1719 31.9646 28.5347C33.6455 30.2166 35.8543 31.0566 38.0621 31.0566C40.271 31.0566 42.4788 30.2156 44.1606 28.5347C47.5234 25.1719 47.5234 19.7013 44.1606 16.3387ZM42.7468 27.1207C40.164 29.7035 35.9613 29.7035 33.3785 27.1207C30.7957 24.538 30.7957 20.3353 33.3785 17.7525C34.6695 16.4616 36.3663 15.8157 38.0622 15.8157C39.7582 15.8157 41.455 16.4616 42.7469 17.7525C45.3295 20.3353 45.3295 24.538 42.7468 27.1207Z" fill="#1B8354"/>
<path d="M40.05 24.425C38.9541 25.5229 37.1703 25.5219 36.0733 24.425C34.9773 23.3282 34.9773 21.5453 36.0733 20.4483C37.1692 19.3524 38.953 19.3514 40.05 20.4483C40.44 20.8392 41.074 20.8392 41.4638 20.4483C41.8548 20.0574 41.8548 19.4254 41.4638 19.0344C39.589 17.1586 36.5352 17.1586 34.6594 19.0344C32.7835 20.9102 32.7835 23.9631 34.6594 25.8389C35.5974 26.7768 36.8303 27.2458 38.0622 27.2458C39.2951 27.2458 40.5269 26.7768 41.4638 25.8389C41.8548 25.4479 41.8548 24.816 41.4638 24.425C41.0738 24.0341 40.44 24.0341 40.05 24.425Z" fill="#1B8354"/>
</g>
<defs>
<clipPath id="clip0_50_1591">
<rect width="60" height="60" fill="white" transform="translate(0 0.5)"/>
</clipPath>
</defs>
</svg>
